<svg width="435" height="40" viewBox="0 0 435 40" fill="none" xmlns="http://www.w3.org/2000/svg">
<path d="M7.56 5.784V33.336H20.712L19.944 39H0.504V5.784H7.56ZM45.0671 25.704C45.0671 26.024 45.0191 26.904 44.9231 28.344H29.0351C29.2591 30.648 29.8831 32.28 30.9071 33.24C31.9311 34.2 33.3231 34.68 35.0831 34.68C36.1711 34.68 37.1951 34.504 38.1551 34.152C39.1151 33.8 40.1551 33.24 41.2751 32.472L44.1071 36.312C41.2591 38.616 38.0431 39.768 34.4591 39.768C30.4591 39.768 27.3871 38.568 25.2431 36.168C23.0991 33.768 22.0271 30.52 22.0271 26.424C22.0271 23.832 22.4751 21.512 23.3711 19.464C24.2991 17.384 25.6271 15.752 27.3551 14.568C29.1151 13.384 31.1951 12.792 33.5951 12.792C37.2111 12.792 40.0271 13.928 42.0431 16.2C44.0591 18.472 45.0671 21.64 45.0671 25.704ZM38.2991 23.784C38.2991 19.56 36.7791 17.448 33.7391 17.448C32.3311 17.448 31.2271 17.976 30.4271 19.032C29.6591 20.056 29.1951 21.736 29.0351 24.072H38.2991V23.784ZM60.7046 12.792C64.5126 12.792 67.4886 13.992 69.6326 16.392C71.7766 18.76 72.8486 22.056 72.8486 26.28C72.8486 28.968 72.3526 31.336 71.3606 33.384C70.4006 35.4 68.9926 36.968 67.1366 38.088C65.3126 39.208 63.1526 39.768 60.6566 39.768C56.8486 39.768 53.8566 38.584 51.6806 36.216C49.5366 33.816 48.4646 30.504 48.4646 26.28C48.4646 23.592 48.9446 21.24 49.9046 19.224C50.8966 17.176 52.3046 15.592 54.1286 14.472C55.9846 13.352 58.1766 12.792 60.7046 12.792ZM60.7046 17.88C58.9766 17.88 57.6806 18.568 56.8166 19.944C55.9846 21.288 55.5686 23.4 55.5686 26.28C55.5686 29.16 55.9846 31.288 56.8166 32.664C57.6806 34.008 58.9606 34.68 60.6566 34.68C62.3526 34.68 63.6166 34.008 64.4486 32.664C65.3126 31.288 65.7446 29.16 65.7446 26.28C65.7446 23.4 65.3286 21.288 64.4966 19.944C63.6646 18.568 62.4006 17.88 60.7046 17.88ZM92.2399 12.792C94.4799 12.792 96.2239 13.48 97.4719 14.856C98.7199 16.2 99.3439 18.072 99.3439 20.472V39H92.5279V21.624C92.5279 20.248 92.2879 19.288 91.8079 18.744C91.3599 18.168 90.6719 17.88 89.7439 17.88C88.7839 17.88 87.9039 18.184 87.1039 18.792C86.3359 19.368 85.5839 20.248 84.8479 21.432V39H78.0319V13.56H83.9359L84.4639 16.776C85.5199 15.464 86.6719 14.472 87.9199 13.8C89.1999 13.128 90.6399 12.792 92.2399 12.792ZM125.269 31.944C125.269 32.936 125.413 33.672 125.701 34.152C125.989 34.6 126.469 34.936 127.141 35.16L125.701 39.672C124.197 39.544 122.965 39.192 122.005 38.616C121.077 38.04 120.357 37.144 119.845 35.928C118.181 38.488 115.637 39.768 112.213 39.768C109.685 39.768 107.669 39.048 106.165 37.608C104.693 36.136 103.957 34.232 103.957 31.896C103.957 29.112 104.965 26.984 106.981 25.512C108.997 24.04 111.893 23.304 115.669 23.304H118.597V22.056C118.597 20.488 118.245 19.4 117.541 18.792C116.837 18.184 115.669 17.88 114.037 17.88C112.245 17.88 110.005 18.328 107.317 19.224L105.781 14.664C108.949 13.416 112.085 12.792 115.189 12.792C118.645 12.792 121.189 13.544 122.821 15.048C124.453 16.52 125.269 18.728 125.269 21.672V31.944ZM114.085 34.872C116.005 34.872 117.509 33.928 118.597 32.04V27.192H116.341C112.661 27.192 110.821 28.568 110.821 31.32C110.821 32.44 111.093 33.32 111.637 33.96C112.213 34.568 113.029 34.872 114.085 34.872ZM145.231 12.84C145.999 12.84 146.847 12.968 147.775 13.224L146.623 19.8C145.727 19.576 144.975 19.464 144.367 19.464C142.863 19.464 141.695 19.992 140.863 21.048C140.031 22.104 139.375 23.704 138.895 25.848V39H132.079V13.56H137.983L138.607 18.504C139.215 16.712 140.095 15.32 141.247 14.328C142.431 13.336 143.759 12.84 145.231 12.84ZM171.736 3.432V39H165.736L165.352 35.88C163.56 38.472 161.128 39.768 158.056 39.768C154.92 39.768 152.52 38.568 150.856 36.168C149.224 33.736 148.408 30.44 148.408 26.28C148.408 23.656 148.824 21.336 149.656 19.32C150.52 17.272 151.736 15.672 153.304 14.52C154.872 13.368 156.68 12.792 158.728 12.792C161.096 12.792 163.16 13.64 164.92 15.336V2.664L171.736 3.432ZM160.072 34.68C161.064 34.68 161.944 34.44 162.712 33.96C163.48 33.448 164.216 32.664 164.92 31.608V20.232C164.248 19.432 163.56 18.84 162.856 18.456C162.184 18.04 161.4 17.832 160.504 17.832C158.936 17.832 157.704 18.52 156.808 19.896C155.944 21.272 155.512 23.4 155.512 26.28C155.512 29.32 155.896 31.48 156.664 32.76C157.464 34.04 158.6 34.68 160.072 34.68ZM189.142 12.792C192.95 12.792 195.926 13.992 198.07 16.392C200.214 18.76 201.286 22.056 201.286 26.28C201.286 28.968 200.79 31.336 199.798 33.384C198.838 35.4 197.43 36.968 195.574 38.088C193.75 39.208 191.59 39.768 189.094 39.768C185.286 39.768 182.294 38.584 180.118 36.216C177.974 33.816 176.902 30.504 176.902 26.28C176.902 23.592 177.382 21.24 178.342 19.224C179.334 17.176 180.742 15.592 182.566 14.472C184.422 13.352 186.614 12.792 189.142 12.792ZM189.142 17.88C187.414 17.88 186.118 18.568 185.254 19.944C184.422 21.288 184.006 23.4 184.006 26.28C184.006 29.16 184.422 31.288 185.254 32.664C186.118 34.008 187.398 34.68 189.094 34.68C190.79 34.68 192.054 34.008 192.886 32.664C193.75 31.288 194.182 29.16 194.182 26.28C194.182 23.4 193.766 21.288 192.934 19.944C192.102 18.568 190.838 17.88 189.142 17.88ZM228.988 25.992H225.388V39H218.332V5.784H228.7C233.148 5.784 236.492 6.616 238.732 8.28C240.972 9.912 242.092 12.392 242.092 15.72C242.092 17.896 241.548 19.688 240.46 21.096C239.404 22.504 237.756 23.704 235.516 24.696L244.108 39H236.092L228.988 25.992ZM225.388 21H229.084C230.972 21 232.396 20.584 233.356 19.752C234.316 18.888 234.796 17.544 234.796 15.72C234.796 14.024 234.284 12.792 233.26 12.024C232.268 11.224 230.7 10.824 228.556 10.824H225.388V21ZM266.644 31.944C266.644 32.936 266.788 33.672 267.076 34.152C267.364 34.6 267.844 34.936 268.516 35.16L267.076 39.672C265.572 39.544 264.34 39.192 263.38 38.616C262.452 38.04 261.732 37.144 261.22 35.928C259.556 38.488 257.012 39.768 253.588 39.768C251.06 39.768 249.044 39.048 247.54 37.608C246.068 36.136 245.332 34.232 245.332 31.896C245.332 29.112 246.34 26.984 248.356 25.512C250.372 24.04 253.268 23.304 257.044 23.304H259.972V22.056C259.972 20.488 259.62 19.4 258.916 18.792C258.212 18.184 257.044 17.88 255.412 17.88C253.62 17.88 251.38 18.328 248.692 19.224L247.156 14.664C250.324 13.416 253.46 12.792 256.564 12.792C260.02 12.792 262.564 13.544 264.196 15.048C265.828 16.52 266.644 18.728 266.644 21.672V31.944ZM255.46 34.872C257.38 34.872 258.884 33.928 259.972 32.04V27.192H257.716C254.036 27.192 252.196 28.568 252.196 31.32C252.196 32.44 252.468 33.32 253.012 33.96C253.588 34.568 254.404 34.872 255.46 34.872ZM280.27 13.56V39H273.454V13.56H280.27ZM276.814 0.455998C278.03 0.455998 279.022 0.839998 279.79 1.608C280.59 2.344 280.99 3.288 280.99 4.44C280.99 5.592 280.59 6.552 279.79 7.32C279.022 8.056 278.03 8.424 276.814 8.424C275.598 8.424 274.606 8.056 273.838 7.32C273.07 6.552 272.686 5.592 272.686 4.44C272.686 3.288 273.07 2.344 273.838 1.608C274.606 0.839998 275.598 0.455998 276.814 0.455998ZM314.505 12.792C316.521 12.792 318.137 13.48 319.353 14.856C320.601 16.232 321.225 18.104 321.225 20.472V39H314.409V21.624C314.409 19.128 313.577 17.88 311.913 17.88C311.017 17.88 310.233 18.168 309.561 18.744C308.889 19.32 308.201 20.216 307.497 21.432V39H300.681V21.624C300.681 19.128 299.849 17.88 298.185 17.88C297.289 17.88 296.505 18.184 295.833 18.792C295.161 19.368 294.489 20.248 293.817 21.432V39H287.001V13.56H292.905L293.433 16.728C294.393 15.448 295.465 14.472 296.649 13.8C297.865 13.128 299.257 12.792 300.825 12.792C302.265 12.792 303.513 13.16 304.569 13.896C305.625 14.6 306.393 15.608 306.873 16.92C307.929 15.544 309.065 14.52 310.281 13.848C311.529 13.144 312.937 12.792 314.505 12.792ZM348.52 39H342.616L342.28 35.592C341.384 37 340.296 38.056 339.016 38.76C337.736 39.432 336.248 39.768 334.552 39.768C332.248 39.768 330.488 39.08 329.272 37.704C328.056 36.296 327.448 34.344 327.448 31.848V13.56H334.264V30.984C334.264 32.328 334.488 33.288 334.936 33.864C335.384 34.408 336.088 34.68 337.048 34.68C338.872 34.68 340.424 33.576 341.704 31.368V13.56H348.52V39ZM369.459 12.792C371.699 12.792 373.443 13.48 374.691 14.856C375.939 16.2 376.563 18.072 376.563 20.472V39H369.747V21.624C369.747 20.248 369.507 19.288 369.027 18.744C368.579 18.168 367.891 17.88 366.963 17.88C366.003 17.88 365.123 18.184 364.323 18.792C363.555 19.368 362.803 20.248 362.067 21.432V39H355.251V13.56H361.155L361.683 16.776C362.739 15.464 363.891 14.472 365.139 13.8C366.419 13.128 367.859 12.792 369.459 12.792ZM405.08 3.432V39H399.08L398.696 35.88C396.904 38.472 394.472 39.768 391.4 39.768C388.264 39.768 385.864 38.568 384.2 36.168C382.568 33.736 381.752 30.44 381.752 26.28C381.752 23.656 382.168 21.336 383 19.32C383.864 17.272 385.08 15.672 386.648 14.52C388.216 13.368 390.024 12.792 392.072 12.792C394.44 12.792 396.504 13.64 398.264 15.336V2.664L405.08 3.432ZM393.416 34.68C394.408 34.68 395.288 34.44 396.056 33.96C396.824 33.448 397.56 32.664 398.264 31.608V20.232C397.592 19.432 396.904 18.84 396.2 18.456C395.528 18.04 394.744 17.832 393.848 17.832C392.28 17.832 391.048 18.52 390.152 19.896C389.288 21.272 388.856 23.4 388.856 26.28C388.856 29.32 389.24 31.48 390.008 32.76C390.808 34.04 391.944 34.68 393.416 34.68ZM422.486 12.792C426.294 12.792 429.27 13.992 431.414 16.392C433.558 18.76 434.63 22.056 434.63 26.28C434.63 28.968 434.134 31.336 433.142 33.384C432.182 35.4 430.774 36.968 428.918 38.088C427.094 39.208 424.934 39.768 422.438 39.768C418.63 39.768 415.638 38.584 413.462 36.216C411.318 33.816 410.246 30.504 410.246 26.28C410.246 23.592 410.726 21.24 411.686 19.224C412.678 17.176 414.086 15.592 415.91 14.472C417.766 13.352 419.958 12.792 422.486 12.792ZM422.486 17.88C420.758 17.88 419.462 18.568 418.598 19.944C417.766 21.288 417.35 23.4 417.35 26.28C417.35 29.16 417.766 31.288 418.598 32.664C419.462 34.008 420.742 34.68 422.438 34.68C424.134 34.68 425.398 34.008 426.23 32.664C427.094 31.288 427.526 29.16 427.526 26.28C427.526 23.4 427.11 21.288 426.278 19.944C425.446 18.568 424.182 17.88 422.486 17.88Z" fill="#141414"/>
</svg>
