<svg width="63" height="63" viewBox="0 0 63 63" fill="none" xmlns="http://www.w3.org/2000/svg">
<g filter="url(#filter0_d_102_16)">
<path d="M21.103 20.0529C21.103 22.9765 20.7736 27.7427 20.4236 29.8015C20.1559 31.4177 19.6515 32.9721 19.0853 33.9603C18.2 35.4632 16.7177 36.9456 15.0295 37.9853C14.7206 38.1809 14.453 38.3456 14.4324 38.3559C14.3603 38.3971 14.7515 38.9118 14.8442 38.9118C15.0603 38.9118 16.2339 38.1294 17.0986 37.3985C17.5927 36.9868 18.025 36.6471 18.0559 36.6471C18.0868 36.6471 18.1177 37.3265 18.1177 38.1603V39.6735L17.7986 39.9412C17.4692 40.2088 17.4692 40.2088 17.6545 40.4868C17.7471 40.6412 17.9015 40.7647 17.9736 40.7647C18.0868 40.7647 18.1177 40.9294 18.1177 41.4235V42.0824L15.8839 42.9677C14.6486 43.4515 13.3412 43.9559 12.9706 44.1L12.3015 44.3574H16.3677C19.703 44.3574 20.475 44.3368 20.6912 44.2132C21.0721 43.9971 21.103 44.0177 21.103 44.5735V45.0882H21.7721H22.4412V44.2235C22.4412 43.4103 22.4618 43.3485 22.678 43.2765C22.8015 43.2353 23.4809 42.9265 24.1912 42.5971C25.7559 41.8456 26.3427 41.5882 26.4662 41.5882C26.5177 41.5882 26.5589 42.35 26.5589 43.3382V45.0882H27.228H27.8971L27.9177 42.9677L27.9486 40.8574L34.1868 37.9544C40.6 34.9691 41.65 34.4853 41.7427 34.4853C41.7736 34.4853 41.7942 34.8765 41.7942 35.3603V36.2353H42.1545H42.5147V35.1544V34.0632L43.1633 33.7647C43.5236 33.6 43.9353 33.4147 44.0897 33.3632L44.3677 33.25V34.7427V36.2353H44.728H45.0883V34.5574V32.8897L47.0236 31.9941C48.0839 31.5 49.3398 30.9029 49.8236 30.6868L50.6986 30.275H50.1633L49.6177 30.2647V29.2353V28.2059H50.2353C50.7912 28.2059 50.853 28.1853 50.853 27.9897C50.853 27.8044 50.8015 27.7838 50.3177 27.825C50.0192 27.8456 49.6383 27.8353 49.4633 27.7941C49.1853 27.7427 49.2162 27.7221 49.7 27.6603C50.0603 27.6088 50.2353 27.5368 50.2045 27.4544C50.1736 27.3618 49.7927 27.3412 48.7839 27.3618L47.4045 27.3927L46.8383 27.0529C45.8089 26.425 45.0883 25.1691 45.0883 23.9853C45.0883 23.3265 45.1192 23.3574 44.45 23.4603C44.3986 23.4603 44.3677 23.5838 44.3677 23.7279V23.9956L43.4721 23.9647C42.6589 23.9338 42.5662 23.9132 42.5353 23.7279C42.4736 23.4191 42.35 23.3368 42.0618 23.4088C41.7942 23.4706 41.7942 23.4912 41.7942 24.4382C41.7942 25.3956 41.7942 25.4059 41.3824 26.0235C41.1456 26.3735 40.7133 26.8779 40.4045 27.1559C39.9206 27.5985 39.7559 27.6809 39.1589 27.7941C38.2942 27.9588 36.7397 27.8662 35.8236 27.6088C34.2795 27.1559 32.5397 26.0029 31.2633 24.5721C30.3883 23.5941 29.1633 21.7618 28.453 20.3515C27.9486 19.3427 27.8971 19.1677 27.8971 18.5706V17.9118H27.228H26.5589V18.7868V19.6618H24.5H22.4412V18.7868V17.9118H21.7721H21.103V20.0529ZM29.3692 23.1206L29.853 23.8412V26.2294C29.853 28.1235 29.8221 28.6177 29.7192 28.6177C29.5956 28.6177 29.05 28.2985 28.2368 27.7632L27.8971 27.5368V24.0882V20.6397L28.3912 21.5147C28.6589 21.9985 29.1015 22.7191 29.3692 23.1206ZM26.5589 21.3706C26.5589 21.8132 26.2603 24.9015 26.1986 25.0868C26.1677 25.1588 26.0236 25.2206 25.8589 25.2206C25.5295 25.2206 25.2103 24.8912 24.4177 23.7177C23.8824 22.925 22.853 21.1853 22.853 21.0824C22.853 21.0412 23.6868 21 24.7059 21H26.5589V21.3706ZM24.2118 24.4691C24.4692 24.8191 24.6647 25.1279 24.6339 25.1588C24.5927 25.1897 24.0883 25.2206 23.5015 25.2206H22.4412V23.45V21.6691L23.0897 22.75C23.4397 23.3471 23.9442 24.1191 24.2118 24.4691ZM30.9236 25.1177C31.1089 25.3132 31.603 25.7971 32.025 26.1779L32.8074 26.8779L32.828 28.1338C32.8383 28.8235 32.8074 29.4412 32.7662 29.5029C32.6736 29.6368 31.1809 29.2971 30.45 28.9882L30.0589 28.8235V26.4765L30.0692 24.1397L30.3368 24.4485C30.4809 24.6132 30.7486 24.9221 30.9236 25.1177ZM44.1618 24.7882C44.1618 24.8294 44.0074 25.0353 43.8221 25.2618L43.4824 25.6529L43.153 25.2824C42.9677 25.0765 42.8236 24.8603 42.8236 24.8088C42.8236 24.7471 43.1221 24.7059 43.4927 24.7059C43.8633 24.7059 44.1618 24.7368 44.1618 24.7882ZM42.9059 25.5294C43.1839 25.9 43.1942 26.0132 42.9265 26.0956C42.6177 26.1882 42.5147 26.075 42.5147 25.6221C42.5147 25.1382 42.6074 25.1177 42.9059 25.5294ZM44.3677 25.9412C44.3677 26.075 44.2956 26.1471 44.1618 26.1471C43.925 26.1471 43.8942 26.0441 44.0795 25.8588C44.2647 25.6735 44.3677 25.7044 44.3677 25.9412ZM45.9942 26.8882C46.3133 27.2279 46.2 27.2485 45.5618 26.9706C45.1192 26.7853 45.0883 26.7441 45.0883 26.3735C45.0883 25.8177 45.1809 25.7868 45.4692 26.2294C45.6133 26.4353 45.85 26.7338 45.9942 26.8882ZM25.9309 26.5485C26.0442 26.6206 26.0545 26.7956 26.003 27.3824C25.9309 28.1029 25.6839 29.5029 25.5706 29.8735C25.5192 30.0382 25.3545 30.0588 23.975 30.0588H22.4412V28.2574V26.4559H24.1192C25.0353 26.4559 25.8486 26.4971 25.9309 26.5485ZM41.7942 26.8162C41.7942 26.8985 41.7221 26.9706 41.6295 26.9706C41.4853 26.9706 41.4853 26.9397 41.5883 26.8162C41.6603 26.7338 41.7324 26.6618 41.753 26.6618C41.7736 26.6618 41.7942 26.7338 41.7942 26.8162ZM44.3677 27.4338C44.3677 27.7427 44.3574 28 44.3471 28C43.9353 28.0824 43.1324 28.1029 42.8647 28.0515C42.5353 28 42.5147 27.9691 42.5147 27.5882C42.5147 27.0324 42.7721 26.8677 43.6677 26.8677H44.3677V27.4338ZM35.1853 28.0515L35.8236 28.2574V28.8853V29.5132L35.35 29.5853C35.0824 29.6162 34.4545 29.6471 33.9603 29.6471H33.0442V28.3191V26.9912L33.7956 27.4235C34.2177 27.6603 34.8456 27.9485 35.1853 28.0515ZM46.4265 29.2765V30.9338L45.8912 31.1294C45.5927 31.2324 45.2839 31.3456 45.2221 31.3662C45.1192 31.4074 45.0883 30.9647 45.0883 29.3691C45.0883 28.2368 45.1089 27.2897 45.1397 27.2588C45.1706 27.2382 45.4692 27.3 45.8089 27.4132L46.4265 27.6191V29.2765ZM41.7942 30.1618V32.7353L41.4339 32.8897C40.6618 33.2088 40.7133 33.3838 40.6824 30.5941L40.6618 28.1029L41.1971 27.8559C41.4956 27.7118 41.753 27.5985 41.7736 27.5985C41.7839 27.5882 41.7942 28.7412 41.7942 30.1618ZM47.6103 27.8353L48.0221 27.9794V29.1324V30.2853L47.4148 30.5324C47.075 30.6662 46.7662 30.7794 46.7148 30.7794C46.6736 30.7794 46.6324 30.0794 46.6324 29.2353V27.6912H46.9206C47.075 27.6912 47.3839 27.7632 47.6103 27.8353ZM40.4559 30.6765V33.2603L39.9721 33.4662C39.0045 33.8779 39.0662 34.0427 39.0353 31.3353L39.0147 28.9574L39.4471 28.6691C39.8486 28.4015 40.3633 28.1029 40.4353 28.1029C40.4456 28.1029 40.4559 29.2662 40.4559 30.6765ZM49.0927 28.1647L49.4118 28.2265V29.2456V30.2647H48.8456H48.2795V29.1838C48.2795 27.9794 48.2589 28 49.0927 28.1647ZM29.2147 29.0809L29.853 29.4515V33.4559V37.45L29.0603 37.7588C28.6177 37.9338 28.175 38.0985 28.0824 38.1397C27.9074 38.2118 27.8971 37.9338 27.8971 33.25V28.2882L28.2368 28.4941C28.4118 28.6177 28.8545 28.875 29.2147 29.0809ZM37.3883 28.5044L38.3456 28.5765L37.8309 28.8235C37.1927 29.1221 36.1633 29.4412 36.0912 29.3588C36.0089 29.2868 36.0089 28.4632 36.0912 28.3809C36.1221 28.35 36.2147 28.35 36.2971 28.3809C36.3692 28.4118 36.8633 28.4632 37.3883 28.5044ZM44.3471 29.5132L44.3162 30.2132H43.4412H42.5662L42.5353 29.6574C42.4839 28.8235 42.4839 28.8235 43.4927 28.8235H44.378L44.3471 29.5132ZM38.8089 31.4897V33.9397L38.3662 34.1147C38.1295 34.2074 37.8721 34.2794 37.8 34.2794C37.7074 34.2794 37.6765 33.7132 37.6765 31.9324L37.6868 29.5956L38.2221 29.3279C38.5206 29.1838 38.7677 29.05 38.7883 29.0397C38.7986 29.0397 38.8089 30.1309 38.8089 31.4897ZM26.5177 30.0382C26.3839 30.1618 26.3427 29.9559 26.4147 29.6265L26.5074 29.2868L26.5383 29.6265C26.5589 29.8221 26.5486 29.9971 26.5177 30.0382ZM30.8618 29.8015L31.3971 29.9662L31.4074 33.075C31.4177 34.7838 31.428 36.3074 31.4383 36.4721C31.4692 36.8118 31.4177 36.8529 30.6559 37.1412L30.0589 37.3574V33.4456C30.0589 30.3471 30.0897 29.5338 30.1927 29.5853C30.2545 29.6059 30.5633 29.7088 30.8618 29.8015ZM37.4706 32.0971V34.4544L36.8118 34.7118C36.4412 34.8559 36.1221 34.9485 36.0912 34.9177C36.05 34.8868 36.0295 33.7853 36.0295 32.4779V30.0897L36.575 29.9353C37.553 29.6471 37.4706 29.4412 37.4706 32.0971ZM32.3236 30.1721L32.8383 30.2853V33.2603V36.2456L32.4059 36.4412C32.1589 36.5441 31.9015 36.6471 31.8295 36.6677C31.7368 36.6882 31.6956 35.9779 31.675 33.3735C31.6647 31.5515 31.6853 30.0588 31.7265 30.0588C31.7677 30.0588 32.0353 30.1103 32.3236 30.1721ZM35.8236 32.6324V35.1029L35.4427 35.2574C35.2368 35.35 34.9589 35.4427 34.8353 35.4735L34.6192 35.5353L34.6295 32.9206L34.6397 30.3162L35.0515 30.2544C35.9059 30.1206 35.8236 29.8735 35.8236 32.6324ZM34.4133 30.3882C34.3927 30.4397 34.3824 31.6441 34.3824 33.075V35.6897L33.7133 35.9471L33.0442 36.2147V33.2397V30.2544L33.7442 30.2853C34.125 30.3059 34.4236 30.3471 34.4133 30.3882ZM20.825 37.3985C20.403 37.8412 18.6324 39.3235 18.5192 39.3235C18.4677 39.3235 18.4265 38.6544 18.4265 37.7485V36.1838L19.003 35.4221C19.3118 35 19.7236 34.3515 19.9089 33.9809C20.2692 33.2809 20.8147 31.7368 20.9692 31.0265C21.0206 30.7794 21.0618 31.8191 21.0824 33.8574L21.103 37.1L20.825 37.3985ZM44.3471 31.3559C44.3162 31.7162 44.2956 31.7368 43.4927 32.0662C43.0397 32.2515 42.6383 32.3853 42.5971 32.3647C42.4942 32.3029 42.4839 31.15 42.5868 31.0574C42.6177 31.0162 43.0397 30.9853 43.5133 30.9853H44.378L44.3471 31.3559ZM25.1177 31.4485C25.1177 31.4691 24.9427 31.8809 24.7162 32.3544C24.2118 33.4662 22.7397 35.6177 22.4927 35.6177C22.4618 35.6177 22.4412 34.6706 22.4412 33.5074V31.3971H23.7795C24.5206 31.3971 25.1177 31.4177 25.1177 31.4485ZM26.5589 33.5074V35.6177H25.6839H24.8089V34.7529C24.8089 33.9294 24.8397 33.8265 25.2618 32.9618C25.5089 32.4471 25.7559 31.8912 25.8177 31.7162C25.9103 31.4485 25.9824 31.3971 26.2397 31.3971H26.5589V33.5074ZM24.3971 35.1029V35.6177H24.0368C23.8412 35.6177 23.6765 35.5868 23.6765 35.5559C23.6765 35.4735 24.2942 34.5882 24.3456 34.5882C24.3765 34.5882 24.3971 34.8147 24.3971 35.1029ZM26.5589 37.8721C26.5589 38.6544 26.528 38.7882 26.3839 38.8397C26.2809 38.8706 25.8897 39.0147 25.5089 39.1588L24.8089 39.4265V38.1912V36.9662L25.6118 36.9353C26.0442 36.9147 26.4353 36.9147 26.4868 36.9353C26.528 36.9559 26.5589 37.3779 26.5589 37.8721ZM24.4177 38.2838L24.3868 39.6015L23.5427 39.9412C23.0795 40.1162 22.6471 40.2912 22.575 40.3221C22.4824 40.3632 22.4412 39.9412 22.4206 38.6647L22.3897 36.9559H23.4192H24.4486L24.4177 38.2838ZM21.103 39.6118V40.9191L19.95 41.3618C19.3118 41.6088 18.7045 41.8353 18.6118 41.8662C18.4471 41.9177 18.4265 41.8353 18.4265 41.1559V40.3941L18.828 40.0956C19.2706 39.7456 20.1559 39.0044 20.6397 38.5824C20.8045 38.4279 20.9795 38.2941 21.0309 38.2941C21.0721 38.2941 21.103 38.8809 21.103 39.6118Z" fill="#292929"/>
</g>
<defs>
<filter id="filter0_d_102_16" x="-4" y="0" width="71" height="71" filterUnits="userSpaceOnUse" color-interpolation-filters="sRGB">
<feFlood flood-opacity="0" result="BackgroundImageFix"/>
<feColorMatrix in="SourceAlpha" type="matrix" values="0 0 0 0 0 0 0 0 0 0 0 0 0 0 0 0 0 0 127 0" result="hardAlpha"/>
<feOffset dy="4"/>
<feGaussianBlur stdDeviation="2"/>
<feComposite in2="hardAlpha" operator="out"/>
<feColorMatrix type="matrix" values="0 0 0 0 0 0 0 0 0 0 0 0 0 0 0 0 0 0 0.25 0"/>
<feBlend mode="normal" in2="BackgroundImageFix" result="effect1_dropShadow_102_16"/>
<feBlend mode="normal" in="SourceGraphic" in2="effect1_dropShadow_102_16" result="shape"/>
</filter>
</defs>
</svg>
